<svg xmlns="http://www.w3.org/2000/svg" xmlns:xlink="http://www.w3.org/1999/xlink" width="456.626" height="451.641" viewBox="0 0 456.626 451.641">
  <defs>
    <style>
      .cls-1 {
        fill: url(#linear-gradient);
      }
    </style>
    <linearGradient id="linear-gradient" x1="0.192" y1="0.048" x2="0.911" y2="0.943" gradientUnits="objectBoundingBox">
      <stop offset="0" stop-color="#84fab0"/>
      <stop offset="1" stop-color="#8fd3f4"/>
    </linearGradient>
  </defs>
  <path id="Intersección_5" data-name="Intersección 5" class="cls-1" d="M110.168,422.727q-53.339-28.913-81.753-79.76T0,226.319Q0,164.5,31.9,112.661t86.739-82.253Q173.478,0,238.283,0q85.741,0,142.571,50.348t75.772,142.073L131.6,302.09a113.034,113.034,0,0,0,44.865,39.88q27.915,13.959,61.814,13.958,46.858,0,94.715-32.9l50.846,82.75a329.012,329.012,0,0,1-72.78,33.4q-38.884,12.462-74.776,12.462Q163.507,451.641,110.168,422.727Zm32.9-298.1q-33.4,36.889-33.4,95.712a109.779,109.779,0,0,0,1,16.949L332,158.522q-12.961-30.907-37.886-50.846t-64.8-19.94Q176.468,87.736,143.069,124.625Z"/>
</svg>
